<?xml version="1.0" encoding="UTF-8"?><svg xmlns="http://www.w3.org/2000/svg" viewBox="0 0 820.4 481"><g><path d="M7,18c-.2,13.2-5,15.4-7,25V438c2,9.6,6.8,11.8,7,25,13.3,.1,16.1,5,26,7H359c7.8,0,23.7-3,28-2,6.1,1.4,18.2,12,21,13,0,0,22.2-13.4,27-13,45.4,3.6,99.3,2,148,2h165c22,0,52.3,2.4,62-10,15.7-27.7,9-87.2,9-129V43c-2-9.6-6.8-11.8-7-25-13.3,0-16.2-4.7-26-7h-260c-42.6,0-93,6-115-11,0,0-21.5,12.2-24,13-5.2,1.6-58.3-2-71-2H33c-9.9,2.1-12.7,7-26,7Z" style="fill:#121212; fill-rule:evenodd;"/></g></svg>
