<svg version="1.1" id="Layer_1" xmlns="http://www.w3.org/2000/svg" x="0" y="0" viewBox="0 0 379 105" xml:space="preserve"><style>.st1{fill:#81B64C}.st3{fill:#fff}</style><path d="M55.1 83.2c-6.9-6.5-10.7-15.6-10.7-25.6 0-4.1.7-8.1 1.9-11.8v-.1c1.4-4.1 3.5-7.9 6.3-11.1l-5.9-3.9c4.2-3 6.9-7.9 6.9-13.5 0-7-4.3-13-10.4-15.4-1.9-.8-15.5 44-15.5 44 0 1-.1 2.4-.1 4 0 4.4 10.9 3.8 10.3 7.7-.9 5.9-1.1 10.3-6.1 24.4-3.4 9.5-26.2 0-27.8 4.7-1 3.1-1.6 6.8-1.6 10.7 0 .4.9 6.7 34.6 6.7s34.6-6.3 34.6-6.7c0-1.9-.1-3.7-.4-5.4-6.1-1.6-11.6-4.5-16.1-8.7z" fill="#5D9948"/><path class="st1" d="M36.4 81.1c1.9-8.5 3.5-17.6 4.6-23.1 1.3-6.8-9.1-8-13.3-8.6-.2 5.8-1.8 15.2-15.6 25.8C8.3 78 5.5 82.1 3.9 87c3.7 1.8 8.7 2.9 16.4 2.9 4.9 0 14.1.6 16.1-8.8zM43.7 45.7c1.6-4.2 1.4-7.1 1.4-7.1l-6.8-7.9c7.2-3.1 11.6-8.9 11.6-15.7 0-5.4-2.6-10.2-6.6-13.2C41.4 1 39.3.5 37 .5 27.8.5 20.3 8 20.3 17.2c0 5.6 2.7 10.5 6.9 13.5l-12 7.9c0 2.7.6 4.8 1.9 7.1h26.6z"/><g id="XMLID_32_"><path d="M36.1 3.9c9.6 1.5-4.4 12.6-8.9 12.1-4.2-.5-.1-13.5 8.9-12.1z" fill="#B2E068"/></g><g><path class="st3" d="M143.9 61v23.6c0 .8-.7 1.5-1.5 1.5h-9.7c-.8 0-1.5-.7-1.5-1.5V63c0-7.1-2-10.4-7-10.4-5.9 0-8.7 3.8-8.7 11.8v20.2c0 .8-.7 1.5-1.5 1.5h-9.7c-.8 0-1.5-.7-1.5-1.5v-55c0-.8.7-1.5 1.5-1.5h9.7c.8 0 1.5.7 1.5 1.5v16.3c3.3-3.2 6.4-4.3 12-4.3 10.4 0 16.4 6 16.4 19.4zM171 41.6c-13.4 0-21.6 9.5-21.6 22.6 0 11.4 6.6 22.6 22.5 22.6 6.8 0 13.5-1 17.7-3.3.6-.4.9-1.1.6-1.8l-3.1-6.6c-.3-.7-1.2-1-1.9-.6-4.4 2.3-6.9 2.8-12.6 2.8-5.7 0-10.3-4.8-10.7-9.4h28.8c.6 0 1.2-.5 1.2-1.1.1-.8.1-1.7.1-2.3 0-14.3-8.1-22.9-21-22.9zm-9.3 18.8c.4-5.6 3.7-9.1 9.4-9.1 5.6 0 8.7 3.6 9.1 9.1h-18.5zM237.3 81.6l3.1-6.6c.3-.7 1.2-1 1.9-.6 3.9 2.1 8 2.8 12.8 2.8 5.9 0 8.1-1.6 8.1-4 0-7.2-26.5.2-26.5-17.4 0-8.3 7.5-14.2 20.3-14.2 5.5 0 11.1 1.3 15.3 3.3.7.3 1 1.2.6 1.8l-3.1 6.5c-.3.7-1.2 1-1.9.7-3.9-1.9-7.4-2.7-11-2.7-5.7 0-8.2 1.8-8.2 4.1 0 7.5 26.5.2 26.5 17.5 0 8.2-7.6 14-20.7 14-6.8 0-12.5-1-16.7-3.3-.6-.4-.9-1.2-.5-1.9zM275.9 83.3c0-2 1.6-3.4 3.4-3.4 1.8 0 3.3 1.4 3.3 3.4s-1.5 3.5-3.3 3.5c-1.8 0-3.4-1.5-3.4-3.5zM307.9 72.2c0-8.5 5.9-14.5 13.9-14.5s13.9 6 13.9 14.5-5.9 14.6-13.9 14.6-13.9-6.1-13.9-14.6zm23 0c0-6.1-3.8-10-9-10s-9 3.9-9 10 3.9 10 9 10c5.1.1 9-3.9 9-10zM376.9 70.1v15.4c0 .6-.5 1-1 1h-3.1c-.6 0-1-.5-1-1V70.7c0-5.6-1.6-8.3-6.2-8.3-4.3 0-4.9 3.3-4.9 9.5v13.6c0 .6-.5 1-1 1h-3.1c-.6 0-1-.5-1-1V70.7c0-5.6-1.4-8.3-5.9-8.3-4.2 0-5.2 3.3-5.2 9.5v13.6c0 .6-.5 1-1 1h-3.1c-.6 0-1-.5-1-1V59c0-.6.5-1 1-1h2.9c.6 0 1 .5 1 1v1.5c.4-.6 1.9-2.8 6.2-2.8 3.8 0 6.2 1.3 8 4.1 0 0 1.8-4.1 8-4.1 6.9 0 10.4 4 10.4 12.4z"/><g><path class="st3" d="M297.9 82.3c-5.6 0-9-3.9-9-10s3.4-10 9-10c2.5 0 4.8.8 6.6 2.6.4.4 1.1.1 1.1-.5v-4c0-.4-.2-.8-.6-1-2-1.1-4.4-1.7-7.1-1.7-8.8 0-14.3 6-14.3 14.5s5.5 14.6 14.3 14.6c2.7 0 5.1-.6 7.1-1.7.4-.2.6-.6.6-1v-4c0-.6-.7-.9-1.1-.5-1.7 1.8-4 2.7-6.6 2.7z"/></g><path class="st3" d="M208.4 55.2c0-2.3 2.5-4.2 8.4-4.2 3.7 0 7.3.8 11.3 2.8.7.4 1.6.1 1.9-.7l3.1-6.7c.3-.7 0-1.5-.6-1.9-4.3-2.1-10.1-3.4-15.7-3.4-13.2 0-20.9 6-20.9 14.6 0 18 27.3 10.5 27.3 17.9 0 2.5-2.3 4.1-8.3 4.1-5 0-9.2-.7-13.2-2.8-.7-.4-1.7-.1-2 .6l-3.2 6.8c-.3.7 0 1.5.6 1.9 4.4 2.4 10.2 3.4 17.2 3.4 13.5 0 21.3-6 21.3-14.3 0-17.8-27.2-10.3-27.2-18.1z"/><g><path class="st3" d="M143.9 61v23.6c0 .8-.7 1.5-1.5 1.5h-9.7c-.8 0-1.5-.7-1.5-1.5V63c0-7.1-2-10.4-7-10.4-5.9 0-8.7 3.8-8.7 11.8v20.2c0 .8-.7 1.5-1.5 1.5h-9.7c-.8 0-1.5-.7-1.5-1.5v-55c0-.8.7-1.5 1.5-1.5h9.7c.8 0 1.5.7 1.5 1.5v16.3c3.3-3.2 6.4-4.3 12-4.3 10.4 0 16.4 6 16.4 19.4zM82.1 75.9c-10.7 0-18.3-7.5-18.3-18.3s7.6-18.3 18.3-18.3c4.4 0 8.3 1.4 11.7 4.1 1.1.9 2.7.1 2.7-1.2v-9.5c0-.8-.4-1.4-1.1-1.8-4.1-1.8-8.8-2.8-13.9-2.8-17.8 0-31 12.3-31 29.5s13.2 29.5 30.9 29.5c5.2 0 9.9-1 14-2.8.7-.3 1.1-1 1.1-1.7V73c0-1.4-1.6-2.1-2.7-1.2-3.4 2.7-7.3 4.1-11.7 4.1zM171 41.6c-13.4 0-21.6 9.5-21.6 22.6 0 11.4 6.6 22.6 22.5 22.6 6.8 0 13.5-1 17.7-3.3.6-.4.9-1.1.6-1.8l-3.1-6.6c-.3-.7-1.2-1-1.9-.6-4.4 2.3-6.9 2.8-12.6 2.8-5.7 0-10.3-4.8-10.7-9.4h28.8c.6 0 1.2-.5 1.2-1.1.1-.8.1-1.7.1-2.3 0-14.3-8.1-22.9-21-22.9zm-9.3 18.8c.4-5.6 3.7-9.1 9.4-9.1 5.6 0 8.7 3.6 9.1 9.1h-18.5zM237.3 81.6l3.1-6.6c.3-.7 1.2-1 1.9-.6 3.9 2.1 8 2.8 12.8 2.8 5.9 0 8.1-1.6 8.1-4 0-7.2-26.5.2-26.5-17.4 0-8.3 7.5-14.2 20.3-14.2 5.5 0 11.1 1.3 15.3 3.3.7.3 1 1.2.6 1.8l-3.1 6.5c-.3.7-1.2 1-1.9.7-3.9-1.9-7.4-2.7-11-2.7-5.7 0-8.2 1.8-8.2 4.1 0 7.5 26.5.2 26.5 17.5 0 8.2-7.6 14-20.7 14-6.8 0-12.5-1-16.7-3.3-.6-.4-.9-1.2-.5-1.9zM275.9 83.3c0-2 1.6-3.4 3.4-3.4 1.8 0 3.3 1.4 3.3 3.4s-1.5 3.5-3.3 3.5c-1.8 0-3.4-1.5-3.4-3.5zM307.9 72.2c0-8.5 5.9-14.5 13.9-14.5s13.9 6 13.9 14.5-5.9 14.6-13.9 14.6-13.9-6.1-13.9-14.6zm23 0c0-6.1-3.8-10-9-10s-9 3.9-9 10 3.9 10 9 10c5.1.1 9-3.9 9-10zM376.9 70.1v15.4c0 .6-.5 1-1 1h-3.1c-.6 0-1-.5-1-1V70.7c0-5.6-1.6-8.3-6.2-8.3-4.3 0-4.9 3.3-4.9 9.5v13.6c0 .6-.5 1-1 1h-3.1c-.6 0-1-.5-1-1V70.7c0-5.6-1.4-8.3-5.9-8.3-4.2 0-5.2 3.3-5.2 9.5v13.6c0 .6-.5 1-1 1h-3.1c-.6 0-1-.5-1-1V59c0-.6.5-1 1-1h2.9c.6 0 1 .5 1 1v1.5c.4-.6 1.9-2.8 6.2-2.8 3.8 0 6.2 1.3 8 4.1 0 0 1.8-4.1 8-4.1 6.9 0 10.4 4 10.4 12.4z"/><g><path class="st3" d="M297.9 82.3c-5.6 0-9-3.9-9-10s3.4-10 9-10c2.5 0 4.8.8 6.6 2.6.4.4 1.1.1 1.1-.5v-4c0-.4-.2-.8-.6-1-2-1.1-4.4-1.7-7.1-1.7-8.8 0-14.3 6-14.3 14.5s5.5 14.6 14.3 14.6c2.7 0 5.1-.6 7.1-1.7.4-.2.6-.6.6-1v-4c0-.6-.7-.9-1.1-.5-1.7 1.8-4 2.7-6.6 2.7z"/></g></g><path class="st3" d="M208.4 55.2c0-2.3 2.5-4.2 8.4-4.2 3.7 0 7.3.8 11.3 2.8.7.4 1.6.1 1.9-.7l3.1-6.7c.3-.7 0-1.5-.6-1.9-4.3-2.1-10.1-3.4-15.7-3.4-13.2 0-20.9 6-20.9 14.6 0 18 27.3 10.5 27.3 17.9 0 2.5-2.3 4.1-8.3 4.1-5 0-9.2-.7-13.2-2.8-.7-.4-1.7-.1-2 .6l-3.2 6.8c-.3.7 0 1.5.6 1.9 4.4 2.4 10.2 3.4 17.2 3.4 13.5 0 21.3-6 21.3-14.3 0-17.8-27.2-10.3-27.2-18.1z"/></g></svg>
